<svg xmlns="http://www.w3.org/2000/svg" xmlns:xlink="http://www.w3.org/1999/xlink" aria-hidden="true" role="img" class="iconify iconify--logos" width="31.9" height="32" preserveAspectRatio="xMidYMid meet" viewBox="0 0 256 257"><defs><linearGradient id="IconifyId1813088fe1fbc01fb466" x1="-.828%" x2="57.636%" y1="7.652%" y2="78.411%"><stop offset="100%" stop-color="#41d1ff"></stop><stop offset="100%" stop-color="#bd34fe"></stop></linearGradient><linearGradient id="IconifyId1813088fe1fbc01fb467" x1="43.376%" x2="50.316%" y1="2.242%" y2="89.03%"><stop offset="0%" stop-color="#ffea83"></stop><stop offset="8.333%" stop-color="#ffdd35"></stop><stop offset="100%" stop-color="#ffa800"></stop></linearGradient></defs><path fill="rgb(22, 116, 35)" d="M 255.2 37.9 L 134.9 253 c -2.5 4.4 -8.9 4.5 -11.4 0 L 0.9 38 c -2.7 -4.8 1.4 -10.6 6.8 -9.7 l 120.4 21.5 a 6.5 6.5 0 0 0 2.3 0 l 117.9 -21.5 c 5.4 -1 9.6 4.8 6.9 9.6 Z"></path><path transform="matrix(1,0,0,1,0,0)" fill="url(#IconifyId1813088fe1fbc01fb467)" d="M 173.5 15.6 L 84.5 33 C 83.1 33.3 82 34.5 81.9 36 l -5.5 92.5 C 76.3 129.5 76.8 130.5 77.6 131.2 C 78.3 131.9 79.4 132.1 80.4 131.9 l 24.8 -5.7 c 2.3 -0.5 4.4 1.5 3.9 3.8 l -7.4 36 c -0.5 2.4 1.8 4.5 4.2 3.8 l 15.3 -4.6 c 2.4 -0.7 4.7 1.4 4.2 3.8 l -11.7 56.6 c -0.7 3.5 4 5.5 5.9 2.4 l 1.3 -2 l 72.5 -144.7 c 1.2 -2.4 -0.9 -5.2 -3.5 -4.7 l -25.5 4.9 c -2.4 0.5 -4.4 -1.8 -3.8 -4.1 l 16.6 -57.7 c 0.7 -2.4 -1.4 -4.6 -3.8 -4.1 Z"></path>
</svg>